<svg id="Layer_1" xmlns="http://www.w3.org/2000/svg" xmlns:xlink="http://www.w3.org/1999/xlink" width="90" height="16" viewBox="0 0 90 16" enable-background="new 0 0 90 16"><path fill="#fbb040" d="M8 3.4l.9 2.9L9.1 7h.7 3.1l-2.6 1.9L9.7 9.3 9.9 10l1 3.2-2.4-2-.5-.5-.6.5-2.4 2L6 10l.2-.7L5.6 8.9 3 7h3.1.7L7 6.3 8 3.4M8 0 6.1 6H0l5 3.7L3 16l5-4 5 4-2-6.3L16 6H9.9L8 0V0z"/><path fill="#fbb040" d="M26.5 3.4l.9 2.9L27.6 7h.7 3.1l-2.6 1.9-.6.4.2.7 1 3.2-2.4-2-.6-.5-.6.5-2.4 2 1-3.2.2-.7L24 8.9 21.4 7h3.1.7l.2-.7L26.5 3.4m0-3.4-1.9 6h-6.1l5 3.7-2 6.3 5-4 5 4-2-6.3 5-3.7h-6.1L26.5.0V0z"/><path fill="#fbb040" d="M45 3.4l.9 2.9L46.1 7h.7 3.1l-2.6 1.9-.6.4.2.7 1 3.2-2.4-2L45 10.7l-.6.5-2.4 2 1-3.2.2-.7-.6-.4L40 7h3.1.7L44 6.3l1-2.9M45 0l-1.9 6H37l5 3.7L40 16l5-4 5 4-2-6.3L53 6h-6.1L45 0V0z"/><path fill="#fbb040" d="M63.5 3.4l.9 2.9L64.6 7h.7 3.1l-2.6 1.9-.6.4.2.7 1 3.2-2.4-2-.6-.5-.6.5-2.4 2 1-3.2.2-.7L61 8.9 58.4 7h3.1.7l.2-.7L63.5 3.4m0-3.4-1.9 6h-6.1l5 3.7-2 6.3 5-4 5 4-2-6.3 5-3.7h-6.1L63.5.0V0z"/><path fill="#fbb040" d="M82 3.4l.9 2.9L83.1 7h.7 3.1l-2.6 1.9-.6.4.2.7 1 3.2-2.4-2-.5-.5-.6.5-2.4 2 1-3.2.2-.7-.6-.4L77 7h3.1.7L81 6.3l1-2.9M82 0l-1.9 6H74l5 3.7L77 16l5-4 5 4-2-6.3L90 6h-6.1L82 0V0z"/></svg>