<svg id="Layer_1" xmlns="http://www.w3.org/2000/svg" xmlns:xlink="http://www.w3.org/1999/xlink" width="90" height="16" viewBox="0 0 90 16" enable-background="new 0 0 90 16"><path fill="#fbb040" d="M16 6H9.9L8 0 6.1 6H0L5 9.7 3 16l5-4 5 4L11 9.7z"/><path fill="#fbb040" d="M34.5 6H28.4L26.5.0 24.6 6H18.5L23.5 9.7 21.5 16l5-4 5 4L29.5 9.7z"/><path fill="#fbb040" d="M53 6H46.9L45 0 43.1 6H37L42 9.7 40 16l5-4 5 4L48 9.7z"/><path fill="#fbb040" d="M71.5 6H65.4L63.5.0 61.6 6H55.5L60.5 9.7 58.5 16l5-4 5 4L66.5 9.7z"/><path fill="#fbb040" d="M90 6H83.9L82 0 80.1 6H74L79 9.7 77 16l5-4 5 4L85 9.7z"/></svg>